<svg width="187" height="187" viewBox="0 0 187 187" fill="none" xmlns="http://www.w3.org/2000/svg">
<path fill-rule="evenodd" clip-rule="evenodd" d="M64.3058 68.347C65.269 68.347 66.0933 68.0103 66.7687 67.3329L76.9119 56.0306C77.4914 55.2573 78.3626 54.8697 79.5217 54.8697H114.445C121.401 54.8697 126.98 56.9704 131.182 61.1737C135.385 65.3751 137.486 70.9548 137.486 77.9108V79.7961C137.486 86.9459 135.504 92.645 131.546 96.8954C127.581 101.148 122.125 103.27 115.169 103.27H67.3482V107.311C67.3482 109.631 68.0491 112.593 69.4489 113.993C70.8487 115.394 72.7105 116.093 75.0286 116.093H134.009V131.889H74.3296C67.3756 131.889 60.7387 129.788 56.5373 125.585C52.334 121.383 50.2333 115.982 50.2333 109.026V68.347H64.3058ZM74.7388 88.5356H112.485C116.212 88.5356 117.982 87.3081 119.488 85.4952C121.152 83.4885 121.551 81.3349 121.551 78.8564C121.551 76.8477 120.925 73.9893 119.018 72.0316C117.52 70.4947 115.645 69.694 112.88 69.6059C112.843 69.6039 74.3042 69.6039 74.3042 69.6039L67.3482 78.3454V98.1992L74.7388 88.5356Z" fill="#908AFF"/>
</svg>
